HIERARCHY
ROOT Hips
{
	OFFSET 47.684200 2.477074 100.082001
	CHANNELS 6 Xposition Yposition Zposition Xrotation Yrotation Zrotation
	JOINT spine
	{
		OFFSET 0.000000 -0.507026 8.817047
		CHANNELS 3 Xrotation Yrotation Zrotation
		JOINT spine1
		{
			OFFSET 0.000000 -0.000002 10.776596
			CHANNELS 3 Xrotation Yrotation Zrotation
			JOINT spine2
			{
				OFFSET 0.000000 -0.000002 10.325897
				CHANNELS 3 Xrotation Yrotation Zrotation
				JOINT Neck
				{
					OFFSET 0.000000 -1.263954 26.511002
					CHANNELS 3 Xrotation Yrotation Zrotation
					JOINT Head
					{
						OFFSET 0.000000 -0.000001 8.009659
						CHANNELS 3 Xrotation Yrotation Zrotation
						End Site
						{
							OFFSET 0.000000 6.393857 19.387894
						}
					}
				}
				JOINT RightShoulder
				{
					OFFSET -4.347950 0.605420 11.151199
					CHANNELS 3 Xrotation Yrotation Zrotation
					JOINT RightArm
					{
						OFFSET 0.000000 -0.000002 14.625793
						CHANNELS 3 Xrotation Yrotation Zrotation
						JOINT RightArmRoll
						{
							OFFSET 0.000000 -0.000001 7.383392
							CHANNELS 3 Xrotation Yrotation Zrotation
							JOINT RightForeArm
							{
								OFFSET 0.000000 -0.000004 21.505203
								CHANNELS 3 Xrotation Yrotation Zrotation
								JOINT RightForeArmRoll
								{
									OFFSET 0.000000 -0.000001 8.285324
									CHANNELS 3 Xrotation Yrotation Zrotation
									JOINT RightHand
									{
										OFFSET 0.000000 -0.000003 16.626801
										CHANNELS 3 Xrotation Yrotation Zrotation
										End Site
										{
											OFFSET 0.000000 0.000000 0.100006
										}
									}
								}
							}
						}
					}
				}
				JOINT LeftShoulder
				{
					OFFSET 4.347950 0.605420 11.151199
					CHANNELS 3 Xrotation Yrotation Zrotation
					JOINT LeftArm
					{
						OFFSET 0.000000 -0.000002 14.625793
						CHANNELS 3 Xrotation Yrotation Zrotation
						JOINT LeftArmRoll
						{
							OFFSET 0.000000 -0.000001 7.383392
							CHANNELS 3 Xrotation Yrotation Zrotation
							JOINT LeftForeArm
							{
								OFFSET 0.000000 -0.000004 21.505203
								CHANNELS 3 Xrotation Yrotation Zrotation
								JOINT LeftForeArmRoll
								{
									OFFSET 0.000000 -0.000001 8.285324
									CHANNELS 3 Xrotation Yrotation Zrotation
									JOINT LeftHand
									{
										OFFSET 0.000000 -0.000003 16.626801
										CHANNELS 3 Xrotation Yrotation Zrotation
										End Site
										{
											OFFSET 0.000000 0.000000 0.100006
										}
									}
								}
							}
						}
					}
				}
			}
		}
	}
	JOINT RightUpLeg
	{
		OFFSET -7.815102 1.202170 -1.433090
		CHANNELS 3 Xrotation Yrotation Zrotation
		JOINT RightUpLegRoll
		{
			OFFSET 0.000000 -0.000003 19.495895
			CHANNELS 3 Xrotation Yrotation Zrotation
			JOINT RightLeg
			{
				OFFSET 0.000000 0.000004 -24.142700
				CHANNELS 3 Xrotation Yrotation Zrotation
				JOINT RightLegRoll
				{
					OFFSET 0.000000 -0.000004 24.221703
					CHANNELS 3 Xrotation Yrotation Zrotation
					JOINT RightFoot
					{
						OFFSET 0.000000 -0.000003 20.160500
						CHANNELS 3 Xrotation Yrotation Zrotation
						JOINT RightToeBase
						{
							OFFSET 0.000000 -0.000003 16.853195
							CHANNELS 3 Xrotation Yrotation Zrotation
							End Site
							{
								OFFSET 0.007145 0.940779 8.161865
							}
						}
					}
				}
			}
		}
	}
	JOINT LeftUpLeg
	{
		OFFSET 7.815102 1.202170 -1.433090
		CHANNELS 3 Xrotation Yrotation Zrotation
		JOINT LeftUpLegRoll
		{
			OFFSET 0.000000 -0.000003 19.496002
			CHANNELS 3 Xrotation Yrotation Zrotation
			JOINT LeftLeg
			{
				OFFSET 0.000000 -0.000004 24.142593
				CHANNELS 3 Xrotation Yrotation Zrotation
				JOINT LeftLegRoll
				{
					OFFSET 0.000000 -0.000004 24.445602
					CHANNELS 3 Xrotation Yrotation Zrotation
					JOINT LeftFoot
					{
						OFFSET 0.000000 -0.000003 19.936600
						CHANNELS 3 Xrotation Yrotation Zrotation
						JOINT LeftToeBase
						{
							OFFSET 0.000000 -0.000003 16.853195
							CHANNELS 3 Xrotation Yrotation Zrotation
							End Site
							{
								OFFSET -0.032013 0.940779 8.161865
							}
						}
					}
				}
			}
		}
	}
}
MOTION
Frames: 7
Frame Time: 0.041667
50.954700 1.578299 89.152405 -0.415040 -1.625437 0.978894 -0.278348 -0.332881 0.365573 3.448252 -0.664067 0.732697 5.093302 -0.655243 0.740598 15.370036 12.093443 -1.251575 -12.637901 -6.602867 -1.189233 -9.420054 -48.186752 -10.409873 -9.582449 -120.676055 -5.401749 -0.000001 0.000011 -0.000001 38.560970 -11.725165 3.362759 -0.000004 0.000013 -3.009760 -5.000234 -7.998801 0.000155 -2.732579 66.741071 4.074454 -50.346998 108.308810 54.990775 -0.000000 0.000001 0.000000 25.284146 17.610166 -3.742254 0.000004 0.000001 3.000001 -5.000208 7.998712 -0.000166 -24.722186 -174.924082 3.804629 -179.999991 0.000005 -1.298004 120.416057 -1.158310 -2.112112 -0.000005 0.000001 2.212160 96.662073 6.107277 2.801211 27.443814 -7.349768 0.255993 -24.572702 178.165539 -4.837806 -0.000007 -0.000004 -1.442429 -57.744024 5.594106 3.660146 -0.000001 0.000002 -1.800830 96.238151 -6.818378 2.488986 26.628865 7.347781 -0.168511 
50.933800 1.502180 89.493706 -0.363971 -1.595988 1.053032 -0.322429 -0.339690 0.366677 3.360135 -0.677956 0.734709 5.005190 -0.669106 0.742777 15.399348 12.006575 -1.265356 -12.376561 -6.506387 -1.183654 -9.536709 -47.998301 -10.543276 -8.607321 -120.713171 -5.834489 -0.000001 0.000010 -0.000001 39.339759 -12.007648 3.617985 -0.000007 0.000013 -3.009760 -5.000233 -7.998800 0.000156 -2.689021 66.541561 4.004935 -49.499289 108.180539 54.816738 0.000000 0.000002 0.000000 26.107555 17.767248 -3.927646 0.000004 0.000001 3.000001 -5.000208 7.998710 -0.000165 -24.355847 -174.771523 3.934938 -179.999991 0.000005 -1.294001 121.138883 -1.405257 -2.216446 -0.000004 0.000000 2.161469 96.181481 6.134098 2.663467 27.606882 -7.349142 0.276906 -24.225494 178.103958 -4.829003 -0.000004 -0.000004 -1.431370 -56.998724 5.753565 3.693800 0.000001 0.000002 -1.751530 95.755673 -6.863307 2.599434 26.766272 7.347765 -0.192039 
50.840500 1.520487 89.742706 -0.315271 -1.565577 1.132656 -0.366587 -0.346174 0.366795 3.271868 -0.691183 0.734740 4.916928 -0.682330 0.742965 15.423409 11.908317 -1.276280 -12.104687 -6.400954 -1.176495 -9.651774 -47.820166 -10.675862 -7.613584 -120.734385 -6.286311 -0.000001 0.000010 -0.000001 40.105983 -12.284497 3.881252 -0.000006 0.000013 -3.009760 -5.000230 -7.998800 0.000155 -2.647620 66.331006 3.936727 -48.612417 108.052882 54.613523 0.000000 -0.000001 0.000001 26.948443 17.913742 -4.116781 0.000002 0.000001 3.000001 -5.000207 7.998710 -0.000165 -23.974176 -174.615029 4.073018 -179.999991 0.000005 -1.289002 121.881570 -1.661754 -2.318328 -0.000003 0.000001 2.109801 95.683075 6.163586 2.523782 27.779732 -7.348421 0.299077 -23.865051 178.043743 -4.818120 -0.000004 -0.000005 -1.420340 -56.233159 5.914299 3.723681 -0.000002 0.000002 -1.701770 95.253839 -6.910925 2.707466 26.913580 7.347666 -0.216514 
50.944599 1.426070 90.144600 -0.267835 -1.534553 1.216157 -0.410963 -0.352275 0.366050 3.183160 -0.703638 0.733032 4.828215 -0.694806 0.741405 15.443556 11.802176 -1.284606 -11.824090 -6.289775 -1.168002 -9.763588 -47.651809 -10.805393 -6.604848 -120.741352 -6.747833 -0.000001 0.000011 -0.000001 40.863488 -12.548870 4.150155 -0.000002 0.000014 -3.009760 -5.000230 -7.998800 0.000156 -2.610614 66.112188 3.872646 -47.699787 107.925294 54.393864 -0.000000 -0.000001 0.000001 27.802688 18.048869 -4.309081 0.000002 0.000001 3.000001 -5.000207 7.998712 -0.000165 -23.580852 -174.457416 4.216867 -179.999991 0.000006 -1.285000 122.642276 -1.924156 -2.417513 -0.000003 0.000000 2.057331 95.164145 6.195271 2.384351 27.964406 -7.347569 0.322760 -23.494165 177.985905 -4.805323 -0.000003 -0.000004 -1.409450 -55.447916 6.074955 3.749189 -0.000002 0.000002 -1.651730 94.731063 -6.961120 2.811915 27.071699 7.347470 -0.241597 
50.903000 1.404499 90.423912 -0.220558 -1.503259 1.301884 -0.455697 -0.357939 0.364567 3.093721 -0.715214 0.729831 4.738778 -0.706418 0.738344 15.461229 11.691365 -1.290511 -11.536768 -6.176043 -1.158363 -9.870518 -47.492788 -10.929705 -5.585365 -120.734631 -7.210373 -0.000001 0.000010 -0.000001 41.615649 -12.794187 4.422042 -0.000005 0.000013 -3.009760 -5.000233 -7.998798 0.000156 -2.580128 65.887440 3.815391 -46.766155 107.799762 54.161450 0.000001 0.000002 0.000001 28.666096 18.171778 -4.503824 0.000003 0.000002 3.000001 -5.000208 7.998713 -0.000165 -23.179570 -174.298901 4.363273 -179.999991 0.000005 -1.280997 123.419674 -2.188990 -2.510794 -0.000007 0.000001 2.004240 94.622367 6.229022 2.247352 28.162924 -7.346566 0.348224 -23.115242 177.929542 -4.789898 -0.000008 -0.000004 -1.398800 -54.644044 6.233891 3.769620 -0.000004 0.000002 -1.601580 94.185508 -7.013841 2.912618 27.241634 7.347182 -0.266984 
50.870701 1.237887 90.823906 -0.172332 -1.472023 1.388203 -0.500933 -0.363110 0.362470 3.003271 -0.725804 0.725384 4.648335 -0.717061 0.734025 15.477839 11.579180 -1.294212 -11.244510 -6.062966 -1.147676 -9.970954 -47.342637 -11.046596 -4.559580 -120.714687 -7.665444 -0.000000 0.000012 -0.000001 42.365614 -13.013844 4.693876 -0.000002 0.000013 -3.009760 -5.000233 -7.998801 0.000156 -2.558146 65.659162 3.767493 -45.827851 107.674626 53.932065 0.000001 -0.000002 0.000000 29.534646 18.281654 -4.700246 0.000002 0.000002 3.000000 -5.000208 7.998712 -0.000164 -22.773874 -174.143309 4.510543 -179.999991 0.000005 -1.276994 124.212154 -2.452995 -2.596968 -0.000006 0.000001 1.950720 94.054983 6.264197 2.114025 28.377307 -7.345360 0.375715 -22.730958 177.876622 -4.772340 -0.000008 -0.000004 -1.388490 -53.822311 6.389642 3.784576 -0.000002 0.000001 -1.551510 93.615461 -7.068730 3.005374 27.424509 7.346785 -0.292366 
51.033497 1.190059 91.116905 -0.122057 -1.441207 1.473490 -0.546816 -0.367734 0.359883 2.911529 -0.735302 0.719937 4.556598 -0.726622 0.728691 15.494716 11.468936 -1.295903 -10.949283 -5.953761 -1.135980 -10.063335 -47.201125 -11.153977 -3.531918 -120.682790 -8.104576 0.000000 0.000010 -0.000001 43.116618 -13.201412 4.962496 -0.000009 0.000013 -3.009760 -5.000234 -7.998800 0.000157 -2.546671 65.430098 3.731522 -44.892644 107.550802 53.712488 0.000000 -0.000000 0.000001 30.403942 18.377710 -4.897335 0.000001 0.000001 3.000000 -5.000212 7.998712 -0.000165 -22.367693 -173.992744 4.656119 -179.999991 0.000005 -1.274003 125.018458 -2.712642 -2.677080 -0.000003 0.000001 1.896959 93.459405 6.300601 1.987540 28.609460 -7.343938 0.405491 -22.343910 177.827185 -4.752293 -0.000006 -0.000005 -1.378640 -52.983673 6.540511 3.793547 -0.000003 0.000002 -1.501690 93.019185 -7.125608 3.091026 27.621015 7.346294 -0.317363 
